HIERARCHY
ROOT Hips
{
	OFFSET 0.00000 0.00000 0.00000
	CHANNELS 6 Xposition Yposition Zposition Zrotation Yrotation Xrotation 
	JOINT LHipJoint
	{
		OFFSET 0 0 0
		CHANNELS 3 Zrotation Yrotation Xrotation
		JOINT LeftHip
		{
			OFFSET 1.53139 -1.83434 0.76626
			CHANNELS 3 Zrotation Yrotation Xrotation
			JOINT LeftKnee
			{
				OFFSET 2.56112 -7.03663 0.00000
				CHANNELS 3 Zrotation Yrotation Xrotation
				JOINT LeftAnkle
				{
					OFFSET 2.59983 -7.14299 0.00000
					CHANNELS 3 Zrotation Yrotation Xrotation
					JOINT LeftToe
					{
						OFFSET 0.13742 -0.37757 2.00054
						CHANNELS 3 Zrotation Yrotation Xrotation
						End Site
						{
							OFFSET 0.00000 -0.00000 1.02897
						}
					}
				}
			}
		}
	}
	JOINT RHipJoint
	{
		OFFSET 0 0 0
		CHANNELS 3 Zrotation Yrotation Xrotation
		JOINT RightHip
		{
			OFFSET -1.40122 -1.83435 0.76627
			CHANNELS 3 Zrotation Yrotation Xrotation
			JOINT RightKnee
			{
				OFFSET -2.54052 -6.98003 0.00000
				CHANNELS 3 Zrotation Yrotation Xrotation
				JOINT RightAnkle
				{
					OFFSET -2.63179 -7.23079 0.00000
					CHANNELS 3 Zrotation Yrotation Xrotation
					JOINT RightToe
					{
						OFFSET -0.24131 -0.66299 2.03908
						CHANNELS 3 Zrotation Yrotation Xrotation
						End Site
						{
							OFFSET -0.00000 -0.00000 1.07391
						}
					}
				}
			}
		}
	}
	JOINT lowerback
	{
		OFFSET 0 0 0
		CHANNELS 3 Zrotation Yrotation Xrotation
		JOINT Chest
		{
			OFFSET 0.01174 2.10302 -0.29778
			CHANNELS 3 Zrotation Yrotation Xrotation
			JOINT Chest2
			{
				OFFSET 0.00772 2.13227 -0.01247
				CHANNELS 3 Zrotation Yrotation Xrotation
				JOINT lowerneck
				{
					OFFSET 0 0 0
					CHANNELS 3 Zrotation Yrotation Xrotation
					JOINT Neck
					{
						OFFSET -0.09219 1.60848 0.31481
						CHANNELS 3 Zrotation Yrotation Xrotation
						JOINT Head
						{
							OFFSET 0.13974 1.65456 -0.31134
							CHANNELS 3 Zrotation Yrotation Xrotation
							End Site
							{
								OFFSET 0.04742 1.69515 -0.14578
							}
						}
					}
				}
				JOINT LeftCollar
				{
					OFFSET 0 0 0
					CHANNELS 3 Zrotation Yrotation Xrotation
					JOINT LeftShoulder
					{
						OFFSET 3.24909 1.02882 -0.23993
CHANNELS 3 Zrotation Xrotation Yrotation
						JOINT LeftElbow
						{
OFFSET 0 -5.329550 -0.000000
CHANNELS 3 Zrotation Xrotation Yrotation
							JOINT LeftWrist
							{
OFFSET 0 -3.692320 -0.000000
CHANNELS 3 Zrotation Xrotation Yrotation
								JOINT lhand
								{
									OFFSET 0 0 0
CHANNELS 3 Zrotation Xrotation Yrotation
									JOINT LFingers
									{
OFFSET 0 -0.536600 -0.000000
CHANNELS 3 Zrotation Xrotation Yrotation
										End Site
										{
OFFSET 0 -0.432620 -0.000000
										}
									}
								}
								JOINT LThumb
								{
OFFSET 0 0.000000 0.000000
CHANNELS 3 Zrotation Xrotation Yrotation
									End Site
									{
OFFSET 0 -0.439220 0.439220
									}
								}
							}
						}
					}
				}
				JOINT RightCollar
				{
					OFFSET 0 0 0
					CHANNELS 3 Zrotation Yrotation Xrotation
					JOINT RightShoulder
					{
						OFFSET -3.21387 0.93002 -0.34594
CHANNELS 3 Zrotation Xrotation Yrotation
						JOINT RightElbow
						{
OFFSET 0 -5.234310 0.000000
CHANNELS 3 Zrotation Xrotation Yrotation
							JOINT RightWrist
							{
OFFSET 0 -3.553010 -0.000000
CHANNELS 3 Zrotation Xrotation Yrotation
								JOINT rhand
								{
									OFFSET 0 0 0
CHANNELS 3 Zrotation Xrotation Yrotation
									JOINT RFingers
									{
OFFSET 0 -0.772520 -0.000000
CHANNELS 3 Zrotation Xrotation Yrotation
										End Site
										{
OFFSET 0 -0.622830 -0.000000
										}
									}
								}
								JOINT RThumb
								{
OFFSET 0 0.000000 0.000000
CHANNELS 3 Zrotation Xrotation Yrotation
									End Site
									{
OFFSET 0 -0.632340 0.632340
									}
								}
							}
						}
					}
				}
			}
		}
	}
}
MOTION
Frames: 10
Frame Time: 0.008333333333333333
14.380926 17.837647 -3.620078 181.876845 36.382522 -182.051770 0.000000 0.000000 0.000000 -23.765463 -3.642918 -15.437759 0.897044 6.036116 16.889391 0.004961 -1.916858 3.128074 0.388743 4.002686 11.084421 0.000000 0.000000 0.000000 19.817940 -5.810802 1.832965 -5.946524 -14.371878 44.758498 -0.029751 2.000009 4.443434 -0.190332 2.804308 -7.734681 0.417119 3.273207 10.525822 -0.466528 4.438281 0.657719 -1.375593 2.199355 -5.135598 -7.805262 -1.740570 -21.894903 3.523648 0.286975 30.407207 2.906942 0.076041 14.061626 0.000000 0.000000 0.000000 2.793333 7.778572 -21.296798 15.468505 -24.794643 3.419995 20.851210 16.520276 -22.484338 0.000000 0.000000 0.000000 -7.125000 0.000000 0.000000 -8.496414 53.669137 1.820972 0.000000 0.000000 0.000000 -0.552904 2.033084 17.278113 -16.010441 -25.534797 -3.650458 -16.814332 2.684401 -9.576930 0.000000 0.000000 0.000000 7.125000 0.000000 0.000000 7.245658 20.022820 4.361703
14.807131 17.887454 -4.604843 178.843668 33.271484 -185.570800 0.000000 0.000000 0.000000 -28.391811 -3.024691 -8.521131 0.723699 5.435754 15.155643 -0.032002 -3.561087 3.019728 0.703866 5.361518 14.942869 0.000000 0.000000 0.000000 15.234181 -3.791553 -6.384230 -10.554127 -17.709632 61.324507 -0.061677 1.520634 5.500673 -0.126208 2.289615 -6.306840 -1.649392 3.132833 11.546501 -0.924258 4.002509 1.058484 -0.685635 2.040482 -5.400962 -7.568703 -1.247730 -21.769931 2.634792 1.386675 31.137678 2.736275 0.483948 14.293994 0.000000 0.000000 0.000000 3.613880 7.359336 -24.635897 16.647485 -26.390636 3.929375 20.677948 16.863895 -21.720289 0.000000 0.000000 0.000000 -7.125000 0.000000 0.000000 -8.392211 52.850401 1.630264 0.000000 0.000000 0.000000 -0.885431 3.574225 18.325704 -15.397028 -24.696336 -3.390094 -16.135895 3.276626 -10.612356 0.000000 0.000000 0.000000 7.125000 0.000000 0.000000 7.715772 18.996794 4.827786
15.204305 17.890727 -5.469512 177.675250 28.592180 -186.737411 0.000000 0.000000 0.000000 -30.927778 -3.190634 -4.191596 0.765422 5.586742 15.589932 -0.122287 -6.261585 1.275111 1.053995 6.522629 18.310356 0.000000 0.000000 0.000000 13.337015 -1.162438 -13.810720 -12.258982 -18.497953 66.807248 -0.006433 -1.683478 -2.930538 -0.110012 2.134631 -5.877984 -2.679974 2.713637 11.668741 -0.992903 3.311990 0.994928 -0.078589 1.727680 -5.586138 -7.429992 -0.720803 -20.682523 2.341807 2.338721 31.579360 2.778075 0.935192 14.199822 0.000000 0.000000 0.000000 3.689945 7.445011 -25.748227 19.687720 -30.263741 5.373337 21.280765 13.899641 -22.260869 0.000000 0.000000 0.000000 -7.125000 0.000000 0.000000 -7.977061 53.519367 1.680609 0.000000 0.000000 0.000000 -0.559804 4.308577 16.132720 -14.986527 -24.127382 -3.220456 -15.948265 5.303435 -8.800854 0.000000 0.000000 0.000000 7.125000 0.000000 0.000000 7.878714 20.870057 4.597988
15.584170 17.750244 -6.245233 176.978367 22.265430 -186.675648 0.000000 0.000000 0.000000 -32.760187 -4.694217 -2.362586 1.199651 6.948153 19.562300 -0.261715 -10.796946 -2.364788 1.251776 7.090823 19.985746 0.000000 0.000000 0.000000 11.881522 3.263869 -18.978467 -10.553922 -17.708542 61.322616 -0.253938 0.377700 -9.386911 -0.152848 2.519079 -6.942540 -3.683525 2.269517 11.642934 -0.999967 2.592287 0.849932 0.592490 1.402469 -5.752352 -7.594088 -0.508206 -20.176497 2.336731 2.801043 31.596176 2.886852 1.163915 14.068283 0.000000 0.000000 0.000000 3.913693 6.875588 -28.654815 22.902281 -33.981350 7.083778 21.298642 10.840009 -22.395109 0.000000 0.000000 0.000000 -7.125000 0.000000 0.000000 -8.007257 53.661727 1.713805 0.000000 0.000000 0.000000 -0.783450 5.449924 15.971903 -15.504626 -24.844225 -3.435260 -16.680942 2.549793 -9.110380 0.000000 0.000000 0.000000 7.125000 0.000000 0.000000 7.347244 20.512130 4.342080
15.944186 17.680585 -7.003536 178.182462 15.666945 -185.319140 0.000000 0.000000 0.000000 -32.113884 -7.183743 -0.553093 1.620503 8.026209 22.793801 -0.475441 -15.419765 -4.554235 1.333562 7.306916 20.630511 0.000000 0.000000 0.000000 11.828689 9.680403 -19.856309 -6.210653 -14.626525 45.816079 -0.472710 0.522526 -12.817051 -0.449842 4.302813 -11.930112 -2.978753 1.968630 11.642103 -0.597266 2.284195 0.623839 0.666718 1.234202 -5.967630 -7.585113 -0.384552 -20.595470 2.392094 3.065999 31.576041 2.967206 1.308765 14.133267 0.000000 0.000000 0.000000 3.873836 6.353107 -31.198851 25.374238 -36.583939 8.512003 22.954984 9.546096 -20.495093 0.000000 0.000000 0.000000 -7.125000 0.000000 0.000000 -5.699073 51.985535 0.982813 0.000000 0.000000 0.000000 -1.060338 5.829450 15.712703 -15.571817 -24.936715 -3.463449 -16.582228 2.068397 -9.364490 0.000000 0.000000 0.000000 7.125000 0.000000 0.000000 7.414023 20.255442 4.425442
16.272432 17.714604 -7.797721 179.404434 7.871899 -184.133130 0.000000 0.000000 0.000000 -31.007400 -9.160214 3.456220 1.510949 7.762928 21.996399 -0.998524 -20.313722 -3.796574 1.247918 7.082098 19.959058 0.000000 0.000000 0.000000 10.367197 17.641549 -17.478999 -2.559391 -9.943658 28.795744 -0.438543 5.541322 -11.856038 -0.942857 6.183735 -17.318561 -2.209547 1.602345 11.151755 -0.219875 1.954732 1.002081 0.706759 1.056454 -5.269625 -6.645886 -0.167688 -21.128611 1.857655 3.211081 30.938732 2.602538 1.412330 13.983745 0.000000 0.000000 0.000000 3.959105 5.367105 -33.028241 26.884627 -38.068915 9.427935 21.338747 10.110679 -21.974245 0.000000 0.000000 0.000000 -7.125000 0.000000 0.000000 -7.814357 53.234177 1.590363 0.000000 0.000000 0.000000 -1.470358 5.493376 15.246259 -15.580008 -24.947748 -3.466889 -16.721111 2.492436 -9.021669 0.000000 0.000000 0.000000 7.125000 0.000000 0.000000 7.319677 20.601650 4.311015
16.560198 17.680790 -8.520553 181.010870 -0.275713 -183.688289 0.000000 0.000000 0.000000 -29.628968 -13.312987 6.002564 1.990598 8.846185 25.315464 -1.361704 -22.950143 -3.305055 1.356604 7.372391 20.823611 0.000000 0.000000 0.000000 11.308942 16.445988 -18.015753 -1.751322 -8.327618 23.713736 1.090592 22.418725 -5.917005 -2.665269 10.131678 -29.404736 -0.967482 1.615613 12.057937 0.450854 2.022868 1.058707 0.680023 1.012998 -5.700619 -7.586810 1.207529 -21.043600 2.466192 2.317607 31.120868 2.574227 -0.116732 14.015330 0.000000 0.000000 0.000000 3.630161 5.419298 -33.917673 27.091916 -38.266644 9.555998 21.508670 9.634245 -21.246767 0.000000 0.000000 0.000000 -7.125000 0.000000 0.000000 -7.391794 52.511497 1.372591 0.000000 0.000000 0.000000 -2.673106 5.904367 16.066571 -15.796508 -25.243928 -3.558732 -16.886932 3.125986 -7.185204 0.000000 0.000000 0.000000 7.125000 0.000000 0.000000 7.238772 22.492635 3.949441
16.884419 17.691589 -9.303867 180.211402 -10.922788 -183.501167 0.000000 0.000000 0.000000 -29.933488 -16.271202 6.818589 2.877185 10.492634 30.588036 -2.130748 -25.447088 3.592399 2.084021 9.036877 25.912106 0.000000 0.000000 0.000000 10.669170 16.616120 -15.154365 -2.201355 -9.273451 26.654469 1.560488 21.926638 3.425048 -0.047998 -1.151093 3.166869 -2.281713 1.314766 12.062127 0.365918 1.316068 1.549458 1.461292 0.632043 -5.200414 -8.023549 0.926396 -20.720004 2.860866 1.997792 31.173166 2.760476 -0.210033 13.978368 0.000000 0.000000 0.000000 3.881030 5.465278 -32.795965 25.639142 -36.849965 8.670362 21.575892 10.048991 -22.635089 0.000000 0.000000 0.000000 -7.125000 0.000000 0.000000 -7.812476 53.962322 1.729510 0.000000 0.000000 0.000000 -3.129166 5.003482 15.126018 -14.954641 -24.082909 -3.207390 -16.869825 3.053711 -9.260511 0.000000 0.000000 0.000000 7.125000 0.000000 0.000000 7.210751 20.346699 4.287241
17.134274 17.801450 -10.106062 183.192967 -21.506716 -184.012309 0.000000 0.000000 0.000000 -24.039852 -16.945069 2.296513 4.802729 13.157765 39.962570 -2.051181 -24.733993 14.339243 2.451407 9.748913 28.167591 0.000000 0.000000 0.000000 15.419221 11.981229 -11.199039 -2.095966 -9.063061 25.992862 0.286320 13.859050 -5.776120 -0.248179 3.205349 -8.850886 0.751082 1.284404 12.199757 1.233507 1.736320 1.418266 0.586422 0.789809 -5.367231 -8.790012 0.528685 -20.190893 3.170205 1.518612 32.081912 2.951703 -0.500799 14.290477 0.000000 0.000000 0.000000 4.570241 5.934418 -31.338273 24.046146 -35.212966 7.733138 18.586148 13.498163 -27.710631 0.000000 0.000000 0.000000 -7.125000 0.000000 0.000000 -13.340024 58.472719 4.446458 0.000000 0.000000 0.000000 -3.587185 6.352531 15.195537 -15.472786 -24.800606 -3.421775 -19.587697 1.305598 -8.926608 0.000000 0.000000 0.000000 7.125000 0.000000 0.000000 5.261888 20.533053 3.094918
17.337081 17.928148 -10.786197 184.858643 -32.332910 -184.457122 0.000000 0.000000 0.000000 -18.693660 -16.245563 -6.228937 6.976895 15.311986 48.786097 -1.377666 -20.796890 13.064608 0.086495 1.893111 5.210506 0.000000 0.000000 0.000000 17.959787 5.155114 -9.077600 -1.840237 -8.525127 24.320733 -0.214305 9.410719 -9.883719 -0.455757 4.330732 -12.009082 2.180429 1.614039 12.819942 1.605092 2.396820 1.446396 0.045576 1.080000 -5.642451 -8.034464 -0.027071 -20.061315 2.563606 0.811094 31.717949 2.460752 -0.708020 14.172155 0.000000 0.000000 0.000000 4.394164 5.698136 -26.446205 21.939809 -32.908912 6.553078 21.666286 12.104502 -23.341257 0.000000 0.000000 0.000000 -7.125000 0.000000 0.000000 -7.988108 54.709902 1.913188 0.000000 0.000000 0.000000 -4.739731 6.319029 15.914171 -15.290855 -24.549737 -3.345867 -17.487063 1.605449 -9.110219 0.000000 0.000000 0.000000 7.125000 0.000000 0.000000 6.769384 20.466916 4.002675
